<svg width="560" height="351" viewBox="0 0 560 351" fill="none" xmlns="http://www.w3.org/2000/svg">
<path d="M470.538 280.571H523.545V304.71H470.538V280.571ZM472.821 325.587H532.516V350.541H440.854V236.371H530.395V261.326H472.821V325.587Z" fill="url(#paint0_linear_30_951)"/>
<path d="M309.451 350.541V236.371H336.036L398.992 312.376H386.433V236.371H418.075V350.541H391.49L328.533 274.537H341.092V350.541H309.451Z" fill="url(#paint1_linear_30_951)"/>
<path d="M254.182 350.541V236.371H286.475V350.541H254.182Z" fill="url(#paint2_linear_30_951)"/>
<path d="M154.634 350.541V236.371H186.927V324.934H241.403V350.541H154.634Z" fill="url(#paint3_linear_30_951)"/>
<path d="M3.8147e-05 275.248L115.835 275.248L115.835 307.103L3.67546e-05 307.103L3.8147e-05 275.248Z" fill="url(#paint4_linear_30_951)"/>
<path d="M538.908 160.347L496.874 160.152L500.979 152.706L523.718 187.898L496.162 203.776L476.183 169.458L481.144 169.28L463.689 202.702L435.349 187.077L454.295 154.478L456.792 158.767L417.108 160.191L416.075 128.551L457.972 128.994L453.866 136.44L431.264 101L458.571 84.9849L478.414 119.551L473.453 119.729L491.044 86.0586L519.385 101.684L500.302 134.532L497.804 130.242L537.626 128.57L538.908 160.347Z" fill="url(#paint5_linear_30_951)"/>
<path d="M336.9 113.275C336.9 118.583 335.959 124.03 334.079 129.617C332.293 135.204 329.566 140.512 325.9 145.54C322.327 150.475 317.862 154.945 312.503 158.949C307.238 162.859 301.127 165.839 294.17 167.888C295.11 170.309 296.332 172.637 297.837 174.871C299.435 177.013 301.315 178.875 303.478 180.458C305.64 182.041 308.131 183.298 310.952 184.23C313.866 185.161 317.204 185.626 320.964 185.626C326.605 185.626 331.447 184.602 335.489 182.553C339.532 180.412 342.916 177.618 345.643 174.173C348.463 170.728 350.72 166.863 352.412 162.58C354.104 158.297 355.373 153.967 356.219 149.59C356.878 146.425 358.194 144.329 360.168 143.305C362.236 142.188 364.305 141.908 366.373 142.467C368.535 143.026 370.369 144.236 371.873 146.099C373.471 147.868 374.129 150.01 373.847 152.524C373.471 155.41 372.813 158.716 371.873 162.44C371.027 166.165 369.71 169.936 367.924 173.754C366.138 177.572 363.835 181.343 361.014 185.068C358.288 188.699 354.903 191.958 350.861 194.845C346.818 197.731 342.07 200.059 336.617 201.828C331.165 203.598 324.913 204.482 317.862 204.482C311.281 204.482 304.888 203.179 298.683 200.571C292.572 198.057 287.119 194.426 282.324 189.677C277.624 184.835 273.816 178.922 270.902 171.938C268.081 164.861 266.671 156.854 266.671 147.914C266.671 138.882 267.94 130.502 270.479 122.773C273.017 114.951 276.354 108.201 280.491 102.52C284.628 96.8404 289.328 92.4174 294.593 89.2515C299.858 85.9924 305.264 84.3629 310.811 84.3629C314.853 84.3629 318.473 85.0613 321.669 86.458C324.96 87.8547 327.733 89.8567 329.989 92.464C332.246 94.9781 333.938 98.0044 335.066 101.543C336.288 105.081 336.9 108.992 336.9 113.275ZM290.363 147.076C290.363 147.914 290.41 148.752 290.504 149.59C290.598 150.429 290.645 151.313 290.645 152.244C294.217 150.568 297.461 148.427 300.375 145.819C303.289 143.212 305.781 140.232 307.849 136.88C309.917 133.528 311.516 129.897 312.644 125.986C313.772 121.982 314.336 117.838 314.336 113.555C314.336 110.389 313.772 107.921 312.644 106.152C311.61 104.383 310.153 103.498 308.272 103.498C305.922 103.498 303.807 104.29 301.926 105.873C300.14 107.456 298.542 109.551 297.132 112.158C295.815 114.672 294.687 117.559 293.747 120.818C292.901 123.984 292.196 127.196 291.632 130.455C291.068 133.714 290.692 136.834 290.504 139.813C290.316 142.7 290.269 145.121 290.363 147.076Z" fill="url(#paint6_linear_30_951)"/>
<path d="M285.991 159.926C284.675 164.675 282.935 169.657 280.773 174.871C278.705 180.086 276.025 184.881 272.735 189.258C269.444 193.634 265.496 197.266 260.889 200.152C256.282 203.039 250.877 204.482 244.672 204.482C240.817 204.482 237.386 203.737 234.377 202.247C231.463 200.851 228.924 198.942 226.762 196.521C224.694 194.1 223.096 191.26 221.967 188.001C220.933 184.742 220.416 181.296 220.416 177.665V119.561C220.416 117.326 220.369 115.231 220.275 113.275C220.181 111.32 219.946 109.597 219.57 108.107C219.194 106.618 218.63 105.454 217.878 104.616C217.22 103.684 216.279 103.219 215.057 103.219C213.083 103.219 210.686 104.616 207.865 107.409C205.045 110.203 202.318 113.834 199.686 118.304C197.054 122.773 194.703 127.848 192.635 133.528C190.567 139.115 189.344 144.748 188.968 150.429V192.191C188.968 193.588 188.921 195.031 188.827 196.521C188.827 197.918 188.545 199.175 187.981 200.292C187.511 201.503 186.712 202.48 185.584 203.225C184.55 204.063 182.999 204.482 180.93 204.482C179.52 204.482 177.969 204.296 176.277 203.924C174.678 203.644 173.174 203.039 171.764 202.108C170.448 201.27 169.319 200.013 168.379 198.337C167.533 196.754 167.11 194.612 167.11 191.912V119.561C167.11 117.326 167.016 115.231 166.828 113.275C166.734 111.32 166.499 109.597 166.123 108.107C165.747 106.618 165.183 105.454 164.431 104.616C163.773 103.684 162.832 103.219 161.61 103.219C159.636 103.219 157.239 104.616 154.418 107.409C151.692 110.203 148.965 113.834 146.239 118.304C143.607 122.773 141.256 127.848 139.188 133.528C137.214 139.115 135.991 144.748 135.521 150.429V192.191C135.521 193.588 135.474 195.031 135.38 196.521C135.38 197.918 135.098 199.175 134.534 200.292C134.064 201.503 133.265 202.48 132.137 203.225C131.103 204.063 129.551 204.482 127.483 204.482C126.073 204.482 124.522 204.296 122.829 203.924C121.231 203.644 119.727 203.039 118.317 202.108C117.001 201.27 115.872 200.013 114.932 198.337C114.086 196.754 113.663 194.612 113.663 191.912V101.263C113.663 98.563 113.428 96.6076 112.958 95.3971C112.582 94.1866 112.394 93.0692 112.394 92.0449C112.394 90.6482 113.146 89.5308 114.65 88.6928C116.155 87.7616 117.941 87.296 120.009 87.296C124.804 87.296 128.564 88.5531 131.291 91.0672C134.111 93.4882 135.521 96.4214 135.521 99.8667V111.879C137.402 107.968 139.423 104.336 141.585 100.984C143.842 97.6319 146.239 94.7453 148.777 92.3243C151.316 89.8102 153.995 87.8547 156.816 86.458C159.73 85.0613 162.832 84.3629 166.123 84.3629C170.448 84.3629 174.02 85.1544 176.841 86.7373C179.755 88.3203 182.058 90.4154 183.751 93.0227C185.537 95.6299 186.806 98.563 187.558 101.822C188.31 104.988 188.78 108.154 188.968 111.32C190.755 107.502 192.729 103.964 194.891 100.705C197.054 97.4457 199.404 94.6056 201.942 92.1846C204.481 89.7636 207.16 87.8547 209.981 86.458C212.895 85.0613 215.997 84.3629 219.288 84.3629C223.989 84.3629 227.843 85.2475 230.852 87.0167C233.86 88.7859 236.21 91.0672 237.903 93.8607C239.595 96.6542 240.77 99.7736 241.428 103.219C242.086 106.664 242.415 110.016 242.415 113.275V172.497C242.415 173.149 242.462 174.22 242.556 175.709C242.65 177.106 242.932 178.549 243.403 180.039C243.873 181.529 244.578 182.833 245.518 183.95C246.552 185.068 248.009 185.626 249.89 185.626C252.804 185.626 255.295 184.602 257.364 182.553C259.526 180.505 261.359 177.944 262.863 174.871C264.462 171.799 265.778 168.493 266.812 164.955C267.846 161.323 268.692 157.924 269.35 154.758C269.915 151.779 270.808 149.637 272.03 148.333C273.346 146.937 274.756 146.238 276.26 146.238C277.389 146.238 278.517 146.611 279.645 147.356C280.867 148.008 281.948 148.892 282.888 150.01C283.923 151.127 284.722 152.384 285.286 153.781C285.944 155.177 286.273 156.574 286.273 157.971C286.273 158.157 286.273 158.39 286.273 158.669C286.273 158.949 286.179 159.368 285.991 159.926Z" fill="url(#paint7_linear_30_951)"/>
<path d="M78.9719 58.9423C76.6216 58.9423 74.3652 58.4767 72.2029 57.5456C70.1346 56.6144 68.3013 55.3573 66.7031 53.7744C65.1989 52.1914 63.9767 50.3756 63.0366 48.3271C62.0964 46.1854 61.6263 43.9041 61.6263 41.4831C61.6263 38.969 62.0964 36.6411 63.0366 34.4994C63.9767 32.3577 65.1989 30.542 66.7031 29.0521C68.3013 27.4692 70.1346 26.2586 72.2029 25.4206C74.3652 24.4894 76.6216 24.0239 78.9719 24.0239C81.5103 24.0239 83.8607 24.4894 86.023 25.4206C88.1853 26.2586 90.0186 27.4692 91.5228 29.0521C93.1211 30.542 94.3432 32.3577 95.1894 34.4994C96.1295 36.6411 96.5996 38.969 96.5996 41.4831C96.5996 43.9041 96.1295 46.1854 95.1894 48.3271C94.3432 50.3756 93.1211 52.1914 91.5228 53.7744C90.0186 55.3573 88.1853 56.6144 86.023 57.5456C83.8607 58.4767 81.5103 58.9423 78.9719 58.9423ZM85.5999 172.497C85.5999 173.149 85.6469 174.22 85.741 175.709C85.835 177.106 86.117 178.549 86.5871 180.039C87.0572 181.529 87.8093 182.833 88.8434 183.95C89.8776 185.068 91.3348 185.626 93.2151 185.626C96.0355 185.626 98.4799 184.602 100.548 182.553C102.71 180.505 104.544 177.944 106.048 174.871C107.646 171.799 108.962 168.493 109.997 164.955C111.031 161.323 111.877 157.924 112.535 154.758C113.099 151.872 113.945 149.777 115.073 148.473C116.296 147.169 117.565 146.471 118.881 146.378C120.291 146.192 121.654 146.518 122.971 147.356C124.381 148.194 125.603 149.311 126.637 150.708C127.765 152.012 128.564 153.501 129.034 155.177C129.599 156.854 129.693 158.436 129.316 159.926C128 164.675 126.261 169.657 124.099 174.871C122.03 180.086 119.351 184.881 116.06 189.258C112.77 193.634 108.821 197.266 104.215 200.152C99.608 203.039 94.2022 204.482 87.9973 204.482C84.1427 204.482 80.7112 203.737 77.7028 202.247C74.6943 200.851 72.1559 198.942 70.0876 196.521C68.0193 194.1 66.4211 191.26 65.2929 188.001C64.2587 184.742 63.7417 181.296 63.7417 177.665V101.263C63.7417 98.563 63.5066 96.6076 63.0366 95.3971C62.6605 94.1866 62.4725 93.0692 62.4725 92.0449C62.4725 90.6482 63.2246 89.5308 64.7288 88.6928C66.233 87.7616 68.0193 87.296 70.0876 87.296C74.8823 87.296 78.6429 88.5531 81.3693 91.0672C84.1897 93.4882 85.5999 96.4214 85.5999 99.8667V172.497Z" fill="url(#paint8_linear_30_951)"/>
<path d="M21.8584 111.879C22.8925 109.923 23.8797 107.316 24.8198 104.057C25.854 100.705 26.7941 97.0266 27.6403 93.0227C28.5804 89.0187 29.4265 84.8285 30.1786 80.452C30.9307 76.0756 31.5888 71.7923 32.1529 67.6021C32.717 63.4118 33.1401 59.501 33.4221 55.8695C33.7982 52.1448 33.9862 48.9789 33.9862 46.3717C33.9862 36.8738 33.2811 29.9367 31.8709 25.5603C30.4607 21.0907 28.5804 18.8559 26.23 18.8559C25.4779 18.8559 24.8198 19.2284 24.2558 19.9733C23.6917 20.7183 23.2216 21.696 22.8455 22.9065C22.4695 24.0239 22.1874 25.2809 21.9994 26.6777C21.9054 27.9813 21.8584 29.1918 21.8584 30.3092V111.879ZM62.8955 155.038C63.4596 152.244 64.3057 150.242 65.4339 149.032C66.6561 147.728 67.9253 147.03 69.2415 146.937C70.6517 146.75 72.0619 147.076 73.4721 147.914C74.8823 148.659 76.1045 149.684 77.1387 150.987C78.1728 152.291 78.9249 153.781 79.395 155.457C79.9591 157.04 80.0531 158.623 79.677 160.206C78.3608 164.023 76.4806 168.493 74.0362 173.614C71.5918 178.736 68.4894 183.578 64.7288 188.14C60.9682 192.703 56.5496 196.567 51.4728 199.733C46.3961 202.899 40.5672 204.482 33.9862 204.482C28.4394 204.482 23.5506 203.551 19.32 201.689C15.0894 199.92 11.5168 197.405 8.60241 194.146C5.78199 190.794 3.61966 186.837 2.11544 182.274C0.705228 177.618 0.00012207 172.45 0.00012207 166.77V36.5945C0.00012207 31.2869 0.658221 26.3983 1.97442 21.9288C3.38463 17.3661 5.26491 13.5018 7.61526 10.3359C10.0596 7.0768 12.88 4.56267 16.0765 2.79347C19.273 0.931158 22.6575 0 26.23 0C30.4607 0 34.0332 0.791484 36.9477 2.37445C39.8621 3.8643 42.2594 5.86629 44.1397 8.38042C46.02 10.8945 47.4772 13.7811 48.5114 17.0402C49.6395 20.2992 50.4387 23.6514 50.9087 27.0967C51.3788 30.4489 51.6609 33.801 51.7549 37.1532C51.8489 40.4122 51.8959 43.392 51.8959 46.0923C51.8959 53.076 51.2378 60.4321 49.9216 68.1607C48.6054 75.7962 46.9131 83.3386 44.8448 90.7879C42.8705 98.2371 40.6612 105.407 38.2168 112.298C35.8665 119.095 33.5631 125.148 31.3068 130.455C29.1445 135.763 27.1702 140.093 25.3839 143.445C23.6917 146.797 22.5165 148.752 21.8584 149.311V165.932C21.8584 171.705 23.0806 176.454 25.5249 180.179C27.9693 183.811 31.8709 185.626 37.2297 185.626C40.5202 185.626 43.5756 184.649 46.3961 182.693C49.3105 180.645 51.8489 178.13 54.0112 175.151C56.2675 172.078 58.1478 168.772 59.652 165.234C61.1563 161.602 62.2374 158.204 62.8955 155.038Z" fill="url(#paint9_linear_30_951)"/>
<defs>
<linearGradient id="paint0_linear_30_951" x1="268.748" y1="292.118" x2="633.895" y2="292.118" gradientUnits="userSpaceOnUse">
<stop stop-color="#85E2CD"/>
<stop offset="1" stop-color="#CCE59F"/>
</linearGradient>
<linearGradient id="paint1_linear_30_951" x1="268.748" y1="292.118" x2="633.895" y2="292.118" gradientUnits="userSpaceOnUse">
<stop stop-color="#85E2CD"/>
<stop offset="1" stop-color="#CCE59F"/>
</linearGradient>
<linearGradient id="paint2_linear_30_951" x1="268.748" y1="292.118" x2="633.895" y2="292.118" gradientUnits="userSpaceOnUse">
<stop stop-color="#85E2CD"/>
<stop offset="1" stop-color="#CCE59F"/>
</linearGradient>
<linearGradient id="paint3_linear_30_951" x1="268.748" y1="292.118" x2="633.895" y2="292.118" gradientUnits="userSpaceOnUse">
<stop stop-color="#85E2CD"/>
<stop offset="1" stop-color="#CCE59F"/>
</linearGradient>
<linearGradient id="paint4_linear_30_951" x1="115.835" y1="291.176" x2="-113.926" y2="291.176" gradientUnits="userSpaceOnUse">
<stop stop-color="#85E2CD"/>
<stop offset="1" stop-color="#CCE59F"/>
</linearGradient>
<linearGradient id="paint5_linear_30_951" x1="397.28" y1="146.059" x2="534.575" y2="146.059" gradientUnits="userSpaceOnUse">
<stop stop-color="#CCE59F"/>
<stop offset="1" stop-color="#85E2CD"/>
</linearGradient>
<linearGradient id="paint6_linear_30_951" x1="93.4777" y1="144.212" x2="525.812" y2="144.212" gradientUnits="userSpaceOnUse">
<stop stop-color="#CCE59F"/>
<stop offset="1" stop-color="#85E2CD"/>
</linearGradient>
<linearGradient id="paint7_linear_30_951" x1="93.4777" y1="144.212" x2="525.812" y2="144.212" gradientUnits="userSpaceOnUse">
<stop stop-color="#CCE59F"/>
<stop offset="1" stop-color="#85E2CD"/>
</linearGradient>
<linearGradient id="paint8_linear_30_951" x1="93.4777" y1="144.212" x2="525.812" y2="144.212" gradientUnits="userSpaceOnUse">
<stop stop-color="#CCE59F"/>
<stop offset="1" stop-color="#85E2CD"/>
</linearGradient>
<linearGradient id="paint9_linear_30_951" x1="93.4777" y1="144.212" x2="525.812" y2="144.212" gradientUnits="userSpaceOnUse">
<stop stop-color="#CCE59F"/>
<stop offset="1" stop-color="#85E2CD"/>
</linearGradient>
</defs>
</svg>
